<?xml version="1.0" encoding="UTF-8" standalone="no"?>
<svg xmlns="http://www.w3.org/2000/svg" version="1.2" baseProfile="tiny" viewBox="0.00 0.00 600.00 100.00">
<path fill="#cccccc" d="
  M 300.00 48.15
  Q 300.26 48.15 300.31 48.09
  C 314.89 28.96 336.74 8.43 362.09 5.84
  C 385.91 3.41 407.27 16.77 423.31 33.79
  Q 431.39 42.37 435.56 47.86
  A 0.54 0.53 -44.7 0 0 436.41 47.86
  C 446.82 34.48 459.66 21.73 474.61 13.45
  C 529.44 -16.93 574.39 45.84 596.79 85.91
  A 3.13 3.12 -28.8 0 1 595.55 90.17
  L 595.31 90.30
  A 3.13 3.13 0.0 0 1 591.01 88.93
  Q 588.92 84.66 579.24 69.66
  C 566.40 49.74 549.53 29.15 528.67 18.34
  C 492.50 -0.42 460.86 26.37 440.34 53.46
  A 0.54 0.53 45.6 0 0 440.34 54.09
  Q 451.16 68.85 460.80 85.88
  A 3.10 3.10 0.0 0 1 459.55 90.15
  L 459.42 90.21
  A 3.27 3.27 0.0 0 1 455.04 88.93
  Q 446.22 73.35 436.23 59.45
  A 0.29 0.29 0.0 0 0 435.76 59.45
  Q 425.73 73.43 416.95 88.93
  A 3.28 3.28 0.0 0 1 412.57 90.22
  L 412.38 90.12
  A 3.03 3.02 -61.4 0 1 411.16 85.95
  Q 420.85 68.85 431.67 54.05
  A 0.53 0.53 0.0 0 0 431.66 53.42
  C 421.42 40.01 408.44 26.64 393.36 18.68
  C 356.87 -0.57 325.01 26.00 304.33 53.49
  A 0.48 0.48 0.0 0 0 304.33 54.07
  Q 315.05 68.69 324.80 85.88
  A 3.10 3.10 0.0 0 1 323.55 90.15
  L 323.43 90.22
  A 3.29 3.29 0.0 0 1 319.04 88.93
  Q 309.99 72.98 300.22 59.45
  A 0.24 0.14 -1.9 0 0 300.08 59.37
  Q 300.04 59.36 300.00 59.36
  Q 299.96 59.36 299.92 59.37
  A 0.24 0.14 1.9 0 0 299.78 59.45
  Q 290.01 72.98 280.96 88.93
  A 3.29 3.29 0.0 0 1 276.57 90.22
  L 276.45 90.15
  A 3.10 3.10 0.0 0 1 275.20 85.88
  Q 284.95 68.69 295.67 54.07
  A 0.48 0.48 0.0 0 0 295.67 53.49
  C 274.99 26.00 243.13 -0.57 206.64 18.68
  C 191.56 26.64 178.58 40.01 168.34 53.42
  A 0.53 0.53 0.0 0 0 168.33 54.05
  Q 179.15 68.85 188.84 85.95
  A 3.03 3.02 61.4 0 1 187.62 90.12
  L 187.43 90.22
  A 3.28 3.28 0.0 0 1 183.05 88.93
  Q 174.27 73.43 164.24 59.45
  A 0.29 0.29 0.0 0 0 163.77 59.45
  Q 153.78 73.35 144.96 88.93
  A 3.27 3.27 0.0 0 1 140.58 90.21
  L 140.45 90.15
  A 3.10 3.10 0.0 0 1 139.20 85.88
  Q 148.84 68.85 159.66 54.09
  A 0.54 0.53 -45.6 0 0 159.66 53.46
  C 139.14 26.37 107.50 -0.42 71.33 18.34
  C 50.47 29.15 33.60 49.74 20.76 69.66
  Q 11.08 84.66 8.99 88.93
  A 3.13 3.13 0.0 0 1 4.69 90.30
  L 4.45 90.17
  A 3.13 3.12 28.8 0 1 3.21 85.91
  C 25.61 45.84 70.56 -16.93 125.39 13.45
  C 140.34 21.73 153.18 34.48 163.59 47.86
  A 0.54 0.53 44.7 0 0 164.44 47.86
  Q 168.61 42.37 176.69 33.79
  C 192.73 16.77 214.09 3.41 237.91 5.84
  C 263.26 8.43 285.11 28.96 299.69 48.09
  Q 299.74 48.15 300.00 48.15
  Z"
/>
<rect fill="#04c8fc" x="495.01" y="22.50" width="20.00" height="64.98" rx="0.48"/>
<path fill="#007ce8" d="
  M 384.46 87.15
  L 335.46 55.30
  A 0.36 0.36 0.0 0 1 335.46 54.70
  L 384.46 22.85
  A 0.36 0.36 0.0 0 1 385.01 23.15
  L 385.01 86.85
  A 0.36 0.36 0.0 0 1 384.46 87.15
  Z"
/>
<path fill="#0018cc" d="
  M 205.46 87.02
  L 231.70 25.70
  A 0.33 0.33 0.0 0 1 232.30 25.70
  L 258.54 87.02
  A 0.33 0.33 0.0 0 1 258.24 87.48
  L 205.76 87.48
  A 0.33 0.33 0.0 0 1 205.46 87.02
  Z"
/>
<path fill="#000064" d="
  M 96.00 51.38
  Q 96.04 51.38 96.05 51.38
  A 0.12 0.01 -4.3 0 0 96.16 51.36
  Q 108.55 41.50 125.40 27.95
  A 0.37 0.37 0.0 0 1 126.00 28.24
  L 126.00 87.14
  A 0.33 0.32 89.8 0 1 125.68 87.47
  Q 125.11 87.48 96.01 87.48
  Q 66.90 87.48 66.33 87.48
  A 0.33 0.32 -89.8 0 1 66.01 87.14
  L 66.00 28.24
  A 0.37 0.37 0.0 0 1 66.60 27.95
  Q 83.45 41.50 95.85 51.36
  A 0.12 0.01 4.3 0 0 95.96 51.38
  Q 95.97 51.38 96.00 51.38
  Z"
/>
<rect fill="#999999" x="2.50" y="94.02" width="595.00" height="3.48" rx="0.45"/>
</svg>
