<?xml version="1.0" encoding="UTF-8" standalone="no"?>
<svg xmlns="http://www.w3.org/2000/svg" version="1.2" baseProfile="tiny" viewBox="0.00 0.00 415.00 415.00">
<path fill="#005076" d="
  M 107.96 210.51
  Q 107.96 210.83 108.69 211.56
  Q 124.11 226.86 129.82 232.71
  A 1.24 1.20 23.6 0 1 130.17 233.56
  L 130.17 285.43
  A 0.54 0.54 0.0 0 0 130.71 285.97
  L 176.67 285.97
  A 0.60 0.60 0.0 0 1 177.27 286.57
  L 177.27 332.74
  A 0.37 0.37 0.0 0 1 176.90 333.11
  L 83.22 333.11
  A 0.34 0.33 90.0 0 1 82.89 332.77
  L 82.89 244.41
  A 1.20 1.18 22.8 0 0 82.54 243.57
  Q 61.68 222.76 49.84 210.87
  Q 49.80 210.82 49.76 210.71
  Q 49.74 210.63 49.74 210.55
  Q 49.74 210.43 49.76 210.35
  Q 49.80 210.24 49.84 210.19
  Q 61.68 198.31 82.54 177.50
  A 1.20 1.18 -22.8 0 0 82.89 176.66
  L 82.91 88.30
  A 0.34 0.33 -90.0 0 1 83.24 87.96
  L 176.92 87.97
  A 0.37 0.37 0.0 0 1 177.29 88.34
  L 177.28 134.51
  A 0.60 0.60 0.0 0 1 176.68 135.11
  L 130.72 135.10
  A 0.54 0.54 0.0 0 0 130.18 135.64
  L 130.17 187.51
  A 1.24 1.20 -23.6 0 1 129.82 188.36
  Q 124.11 194.21 108.69 209.51
  Q 107.96 210.24 107.96 210.51
  Z"
/>
<path fill="#005076" d="
  M 361.82 210.57
  Q 361.82 210.68 361.79 210.76
  Q 361.76 210.87 361.72 210.92
  Q 349.88 222.81 329.03 243.61
  A 1.20 1.18 -22.8 0 0 328.68 244.45
  L 328.68 332.79
  A 0.34 0.33 90.0 0 1 328.35 333.13
  L 234.69 333.13
  A 0.37 0.37 0.0 0 1 234.32 332.76
  L 234.32 286.60
  A 0.60 0.60 0.0 0 1 234.92 286.00
  L 280.87 286.00
  A 0.54 0.54 0.0 0 0 281.41 285.46
  L 281.41 233.60
  A 1.24 1.20 -23.6 0 1 281.76 232.75
  Q 287.47 226.91 302.88 211.61
  Q 303.61 210.88 303.61 210.61
  Q 303.61 210.29 302.88 209.56
  Q 287.47 194.27 281.76 188.42
  A 1.24 1.20 23.6 0 1 281.41 187.57
  L 281.40 135.72
  A 0.54 0.54 0.0 0 0 280.86 135.18
  L 234.91 135.18
  A 0.60 0.60 0.0 0 1 234.31 134.58
  L 234.31 88.43
  A 0.37 0.37 0.0 0 1 234.68 88.06
  L 328.33 88.04
  A 0.34 0.33 90.0 0 1 328.66 88.38
  L 328.67 176.72
  A 1.20 1.18 22.8 0 0 329.02 177.56
  Q 349.88 198.36 361.72 210.25
  Q 361.76 210.30 361.79 210.40
  Q 361.82 210.49 361.82 210.57
  Z"
/>
<rect fill="#9d9d9c" x="-32.84" y="-32.84" transform="translate(205.75,210.62) rotate(-45.0)" width="65.68" height="65.68" rx="0.47"/>
</svg>
