<?xml version="1.0" encoding="UTF-8" standalone="no"?>
<!DOCTYPE svg PUBLIC "-//W3C//DTD SVG 1.1//EN" "http://www.w3.org/Graphics/SVG/1.1/DTD/svg11.dtd">
<svg xmlns="http://www.w3.org/2000/svg" version="1.1" viewBox="0.00 0.00 419.00 252.00">
<rect fill="#b51f2a" x="259.17" y="33.34" width="23.94" height="25.14" rx="0.40"/>
<path fill="#44403f" d="
  M 160.75 101.08
  L 160.75 84.06
  A 0.44 0.44 0.0 0 1 161.21 83.62
  L 181.99 84.58
  A 0.41 0.41 0.0 0 0 182.42 84.17
  L 182.42 58.20
  A 0.81 0.80 -9.7 0 1 182.96 57.44
  L 205.88 49.47
  A 0.37 0.36 80.9 0 1 206.36 49.82
  L 206.36 84.17
  A 0.40 0.40 0.0 0 0 206.78 84.57
  L 235.03 83.60
  A 0.54 0.54 0.0 0 1 235.59 84.14
  L 235.59 101.09
  A 0.57 0.56 -0.0 0 1 235.02 101.65
  L 206.66 101.65
  A 0.28 0.28 0.0 0 0 206.38 101.93
  Q 206.33 175.42 206.44 179.23
  Q 206.54 182.35 208.97 185.77
  C 214.21 193.11 227.17 191.32 234.18 189.62
  A 0.38 0.38 0.0 0 1 234.65 189.99
  L 234.65 207.50
  A 0.60 0.60 0.0 0 1 234.12 208.10
  Q 224.01 209.26 220.78 209.49
  Q 211.85 210.11 201.91 208.32
  Q 191.61 206.47 185.52 196.47
  C 182.43 191.39 182.48 184.51 182.47 178.50
  Q 182.42 104.46 182.42 102.19
  A 0.54 0.54 0.0 0 0 181.88 101.65
  L 161.33 101.65
  A 0.58 0.57 0.0 0 1 160.75 101.08
  Z"
/>
<path fill="#44403f" d="
  M 305.67 101.67
  A 0.58 0.57 0.0 0 1 305.09 101.10
  L 305.10 84.10
  A 0.44 0.44 0.0 0 1 305.56 83.66
  L 326.32 84.62
  A 0.41 0.41 0.0 0 0 326.75 84.21
  L 326.75 58.27
  A 0.81 0.80 -9.7 0 1 327.29 57.51
  L 350.19 49.55
  A 0.37 0.36 80.9 0 1 350.67 49.90
  L 350.66 84.22
  A 0.40 0.40 0.0 0 0 351.08 84.62
  L 379.31 83.66
  A 0.54 0.54 0.0 0 1 379.87 84.20
  L 379.86 101.14
  A 0.57 0.56 0.0 0 1 379.29 101.69
  L 350.96 101.69
  A 0.28 0.28 0.0 0 0 350.68 101.97
  Q 350.61 175.39 350.71 179.19
  Q 350.81 182.31 353.24 185.73
  C 358.47 193.06 371.42 191.28 378.43 189.58
  A 0.38 0.38 0.0 0 1 378.90 189.95
  L 378.89 207.45
  A 0.60 0.60 0.0 0 1 378.36 208.05
  Q 368.26 209.20 365.03 209.43
  Q 356.11 210.05 346.18 208.26
  Q 335.89 206.40 329.81 196.41
  C 326.72 191.34 326.78 184.46 326.77 178.46
  Q 326.74 104.49 326.74 102.22
  A 0.54 0.54 0.0 0 0 326.20 101.68
  L 305.67 101.67
  Z"
/>
<path fill="#44403f" d="
  M 149.20 167.13
  C 144.01 200.68 111.25 212.46 81.44 209.07
  C 56.77 206.26 41.58 189.88 36.50 166.50
  C 28.77 130.89 38.44 83.82 81.23 76.73
  Q 96.95 74.12 112.61 78.66
  C 137.85 85.98 150.04 107.29 150.80 132.50
  Q 150.87 134.95 150.82 146.85
  A 0.45 0.44 -89.3 0 1 150.38 147.29
  L 59.93 147.29
  A 0.66 0.66 0.0 0 0 59.27 147.91
  Q 58.40 165.17 64.75 176.76
  C 72.21 190.38 84.96 193.54 99.44 191.40
  Q 113.22 189.36 118.51 177.55
  Q 120.08 174.02 121.58 166.92
  A 0.70 0.70 0.0 0 1 122.26 166.37
  L 148.55 166.37
  A 0.66 0.66 0.0 0 1 149.20 167.13
  Z
  M 123.21 129.96
  C 123.04 123.14 122.49 116.86 119.62 110.49
  Q 112.61 94.92 95.22 93.31
  Q 85.07 92.37 77.90 95.88
  C 65.15 102.12 59.40 116.26 59.34 130.21
  A 0.36 0.35 0.8 0 0 59.70 130.57
  L 122.61 130.57
  A 0.60 0.59 -0.9 0 0 123.21 129.96
  Z"
/>
<rect fill="#44403f" x="-11.95" y="-12.60" transform="translate(270.85,94.74) rotate(0.1)" width="23.90" height="25.20" rx="0.56"/>
<rect fill="#44403f" x="-11.90" y="-12.52" transform="translate(270.82,145.02) rotate(-0.1)" width="23.80" height="25.04" rx="0.29"/>
<rect fill="#44403f" x="258.89" y="182.69" width="23.82" height="25.62" rx="0.37"/>
</svg>
